<?xml version="1.0" standalone="no"?><!DOCTYPE svg PUBLIC "-//W3C//DTD SVG 1.1//EN" "http://www.w3.org/Graphics/SVG/1.1/DTD/svg11.dtd"><svg t="1582869614193" class="icon" viewBox="0 0 1024 1024" version="1.1" xmlns="http://www.w3.org/2000/svg" p-id="2789" xmlns:xlink="http://www.w3.org/1999/xlink" width="128" height="128"><defs><style type="text/css"></style></defs><path d="M280.376 96H640v128H280.376z" fill="#f4ea2a" p-id="2790" data-spm-anchor-id="a313x.7781069.0.i6" class=""></path><path d="M643.688 435.844l-90.5 90.5-321.064-321.094 90.5-90.5z" fill="#f4ea2a" p-id="2791" data-spm-anchor-id="a313x.7781069.0.i7" class=""></path><path d="M322.624 114.75c25 25 25 65.5 0 90.5s-65.5 25-90.5 0-25-65.5 0-90.5 65.5-25 90.5 0zM725.376 565.312c0 117.844-95.562 213.376-213.376 213.376s-213.312-95.532-213.312-213.376C298.688 447.5 394.188 352 512 352s213.376 95.5 213.376 213.312z" fill="#1296db" p-id="2792" data-spm-anchor-id="a313x.7781069.0.i3" class=""></path><path d="M1024 778.688c0 23.562-19.062 42.624-42.624 42.624H42.688C19.124 821.312 0 802.25 0 778.688V608c0-23.562 19.124-42.688 42.688-42.688h938.688c23.562 0 42.624 19.124 42.624 42.688v170.688z" fill="#0e932e" p-id="2793" data-spm-anchor-id="a313x.7781069.0.i5" class=""></path><path d="M214.562 736h575.812v175.312H214.562z" fill="#1296db" p-id="2794" data-spm-anchor-id="a313x.7781069.0.i14" class="selected"></path><path d="M170.688 928C111.876 928 64 880.156 64 821.312c0-58.812 47.876-106.624 106.688-106.624s106.688 47.812 106.688 106.624c0 58.844-47.876 106.688-106.688 106.688zM853.376 928c-58.812 0-106.688-47.844-106.688-106.688 0-58.812 47.876-106.624 106.688-106.624S960 762.5 960 821.312C960 880.156 912.188 928 853.376 928zM512 928c-58.812 0-106.624-47.844-106.624-106.688 0-58.812 47.812-106.624 106.624-106.624s106.688 47.812 106.688 106.624C618.688 880.156 570.812 928 512 928z" fill="#f4ea2a" p-id="2795" data-spm-anchor-id="a313x.7781069.0.i13" class=""></path><path d="M170.688 800c-11.75 0-21.312 9.562-21.312 21.312 0 11.812 9.562 21.376 21.312 21.376 11.812 0 21.312-9.562 21.312-21.376C192 809.562 182.5 800 170.688 800zM853.376 800c-11.812 0-21.376 9.562-21.376 21.312a21.366 21.366 0 0 0 21.376 21.376c11.75 0 21.312-9.562 21.312-21.376 0-11.75-9.564-21.312-21.312-21.312zM512 800c-11.75 0-21.312 9.562-21.312 21.312 0 11.812 9.562 21.376 21.312 21.376a21.366 21.366 0 0 0 21.376-21.376c0-11.75-9.564-21.312-21.376-21.312z" fill="#1296db" p-id="2796" data-spm-anchor-id="a313x.7781069.0.i12" class=""></path><path d="M853.376 693.312H170.688c-70.688 0-128 57.312-128 128 0 70.718 57.312 128 128 128h682.688c70.688 0 128-57.282 128-128 0-70.688-57.314-128-128-128zM170.688 906.688c-47.062 0-85.312-38.312-85.312-85.376C85.376 774.28 123.626 736 170.688 736S256 774.282 256 821.312c0 47.064-38.25 85.376-85.312 85.376z m246.562 0H265.5c20.406-22.688 33.188-52.438 33.188-85.376 0-32.906-12.75-62.624-33.188-85.312h151.75C396.812 758.688 384 788.406 384 821.312c0 32.938 12.812 62.688 33.25 85.376z m94.75 0c-47 0-85.312-38.312-85.312-85.376C426.688 774.282 465 736 512 736c47.062 0 85.376 38.282 85.376 85.312 0 47.064-38.314 85.376-85.376 85.376z m246.562 0h-151.75C627.218 884 640 854.25 640 821.312c0-32.906-12.75-62.624-33.188-85.312h151.75c-20.438 22.688-33.188 52.406-33.188 85.312 0.002 32.938 12.782 62.688 33.188 85.376z m94.814 0c-47.062 0-85.376-38.312-85.376-85.376C768 774.282 806.312 736 853.376 736s85.312 38.282 85.312 85.312c0 47.064-38.25 85.376-85.312 85.376z" fill="#2c2c2c" p-id="2797" data-spm-anchor-id="a313x.7781069.0.i4" class=""></path><path d="M789.376 181.312A21.366 21.366 0 0 0 768 202.688h-113.312v-0.032H640V117.312h128a21.366 21.366 0 0 0 21.376 21.376c11.75 0 21.312-9.562 21.312-21.376 0-23.562-19.124-42.624-42.688-42.624h-128c-23.562 0-42.624 19.062-42.624 42.624v85.376c0 23.562 19.062 42.624 42.624 42.624h128c23.562 0 42.688-19.062 42.688-42.624 0-11.812-9.564-21.376-21.312-21.376z" fill="#13227a" p-id="2798" data-spm-anchor-id="a313x.7781069.0.i8" class=""></path></svg>